<svg xmlns="http://www.w3.org/2000/svg" viewBox="0 0 405.333 405.333"><path d="M10.667 234.667C4.8 234.667 0 239.467 0 245.333 0 251.2 4.8 256 10.667 256s10.667-4.8 10.667-10.667c-.001-5.866-4.801-10.666-10.667-10.666zM10.667 149.333C4.8 149.333 0 154.133 0 160s4.8 10.667 10.667 10.667 10.667-4.8 10.667-10.667c-.001-5.867-4.801-10.667-10.667-10.667zM160 384c-5.867 0-10.667 4.8-10.667 10.667s4.8 10.667 10.667 10.667 10.667-4.8 10.667-10.667S165.867 384 160 384zM74.667 53.333c-11.733 0-21.333 9.6-21.333 21.333S62.933 96 74.667 96 96 86.4 96 74.667s-9.6-21.334-21.333-21.334zM74.667 138.667c-11.733 0-21.333 9.6-21.333 21.333s9.6 21.333 21.333 21.333S96 171.733 96 160s-9.6-21.333-21.333-21.333zM74.667 224c-11.733 0-21.333 9.6-21.333 21.333 0 11.733 9.6 21.333 21.333 21.333S96 257.067 96 245.333C96 233.6 86.4 224 74.667 224zM394.667 170.667c5.867 0 10.667-4.8 10.667-10.667s-4.8-10.667-10.667-10.667S384 154.133 384 160s4.8 10.667 10.667 10.667zM245.333 21.333c5.867 0 10.667-4.8 10.667-10.667C256 4.8 251.2 0 245.333 0s-10.667 4.8-10.667 10.667c.001 5.866 4.801 10.666 10.667 10.666zM160 96c11.733 0 21.333-9.6 21.333-21.333s-9.6-21.333-21.333-21.333-21.333 9.6-21.333 21.333S148.267 96 160 96zM160 21.333c5.867 0 10.667-4.8 10.667-10.667C170.667 4.8 165.867 0 160 0s-10.667 4.8-10.667 10.667c0 5.866 4.8 10.666 10.667 10.666zM245.333 96c11.733 0 21.333-9.6 21.333-21.333s-9.6-21.333-21.333-21.333c-11.733 0-21.333 9.6-21.333 21.333S233.6 96 245.333 96zM74.667 309.333c-11.733 0-21.333 9.6-21.333 21.333 0 11.733 9.6 21.333 21.333 21.333S96 342.4 96 330.667c0-11.734-9.6-21.334-21.333-21.334zM245.333 128c-17.707 0-32 14.293-32 32s14.293 32 32 32 32-14.293 32-32-14.293-32-32-32zM330.667 224c-11.733 0-21.333 9.6-21.333 21.333 0 11.733 9.6 21.333 21.333 21.333 11.733 0 21.333-9.6 21.333-21.333C352 233.6 342.4 224 330.667 224zM330.667 309.333c-11.733 0-21.333 9.6-21.333 21.333 0 11.733 9.6 21.333 21.333 21.333C342.4 352 352 342.4 352 330.667c0-11.734-9.6-21.334-21.333-21.334zM330.667 138.667c-11.733 0-21.333 9.6-21.333 21.333s9.6 21.333 21.333 21.333c11.733 0 21.333-9.6 21.333-21.333s-9.6-21.333-21.333-21.333zM394.667 234.667c-5.867 0-10.667 4.8-10.667 10.667C384 251.2 388.8 256 394.667 256s10.667-4.8 10.667-10.667c-.001-5.866-4.801-10.666-10.667-10.666zM330.667 53.333c-11.733 0-21.333 9.6-21.333 21.333S318.933 96 330.667 96C342.4 96 352 86.4 352 74.667s-9.6-21.334-21.333-21.334zM160 213.333c-17.707 0-32 14.293-32 32s14.293 32 32 32 32-14.293 32-32-14.293-32-32-32zM160 309.333c-11.733 0-21.333 9.6-21.333 21.333 0 11.733 9.6 21.333 21.333 21.333s21.333-9.6 21.333-21.333c0-11.733-9.6-21.333-21.333-21.333zM160 128c-17.707 0-32 14.293-32 32s14.293 32 32 32 32-14.293 32-32-14.293-32-32-32zM245.333 309.333c-11.733 0-21.333 9.6-21.333 21.333C224 342.4 233.6 352 245.333 352c11.733 0 21.333-9.6 21.333-21.333.001-11.734-9.599-21.334-21.333-21.334zM245.333 384c-5.867 0-10.667 4.8-10.667 10.667s4.8 10.667 10.667 10.667S256 400.534 256 394.667 251.2 384 245.333 384zM245.333 213.333c-17.707 0-32 14.293-32 32s14.293 32 32 32 32-14.293 32-32-14.293-32-32-32z"/></svg>