<svg xmlns="http://www.w3.org/2000/svg" viewBox="0 0 60 60"><path d="M54.5 40.101V19.899a5.009 5.009 0 004-4.899c0-2.757-2.243-5-5-5a5.002 5.002 0 00-4.578 3.004L11.496 5.041c0-.014.004-.027.004-.041 0-2.757-2.243-5-5-5s-5 2.243-5 5a5.01 5.01 0 004 4.899v40.202A5.009 5.009 0 001.5 55c0 2.757 2.243 5 5 5s5-2.243 5-5c0-.014-.004-.027-.004-.041l37.426-7.964A5.001 5.001 0 0053.5 50c2.757 0 5-2.243 5-5a5.01 5.01 0 00-4-4.899zm-6 4.94l-37.419 7.962a5.058 5.058 0 00-.376-.686 5.152 5.152 0 00-.634-.807c-.052-.053-.11-.099-.164-.149a4.878 4.878 0 00-.478-.394c-.073-.053-.144-.108-.22-.158a4.994 4.994 0 00-.667-.363 5.011 5.011 0 00-.24-.097 4.982 4.982 0 00-.733-.228c-.024-.005-.045-.015-.069-.02V9.899c.024-.005.045-.015.069-.02.252-.056.495-.135.733-.228.081-.031.161-.062.24-.097.232-.105.455-.225.667-.363.076-.05.147-.104.22-.158.167-.122.327-.253.478-.394.054-.051.112-.096.164-.149a4.973 4.973 0 00.634-.807c.14-.219.271-.445.376-.686L48.5 14.959V15c0 .325.036.642.096.95.02.101.054.196.08.295.052.203.109.403.185.595.044.11.098.213.149.319.082.17.169.336.269.495a5.196 5.196 0 00.811.983c.135.127.279.242.428.354.095.071.186.144.286.208.169.109.348.2.53.288.093.045.181.098.277.137.267.109.545.197.832.259.018.004.035.012.053.016l.003.001v20.201l-.003.001c-.018.004-.035.012-.053.016a4.96 4.96 0 00-.832.259c-.096.039-.184.092-.277.137a4.923 4.923 0 00-.53.288c-.1.064-.191.137-.286.208a4.843 4.843 0 00-.428.354 5.232 5.232 0 00-.603.683 4.447 4.447 0 00-.208.3c-.1.159-.187.325-.269.495-.051.106-.106.209-.149.319a4.947 4.947 0 00-.185.595c-.026.099-.06.194-.08.295-.06.307-.096.624-.096.949v.041z"/></svg>