<svg xmlns="http://www.w3.org/2000/svg" viewBox="0 0 512 512"><path d="M256 0L34.3 128.002v255.996L256 512l221.7-128.002V128.002L256 0zm15 43.304l161.7 93.358-90 51.962-71.7-41.396V43.304zm-30 0v103.924l-71.7 41.396-90-51.962L241 43.304zM64.3 162.643l90 51.961v82.792l-90 51.962V162.643zM241 468.696L79.299 375.338l90.001-51.962 71.7 41.396v103.924zm0-138.565l-56.7-32.736v-65.471L241 264.66v65.471zm-41.7-124.187l56.7-32.736 56.7 32.736L256 238.68l-56.7-32.736zm128.4 25.98v65.471L271 330.132V264.66l56.7-32.736zM271 468.696V364.772l71.7-41.396 90 51.962L271 468.696zm176.7-119.338l-90-51.962v-82.792l90-51.961v186.715z"/></svg>