<svg fill="currentColor" xmlns="http://www.w3.org/2000/svg" viewBox="0 0 468.068 468.068"><path d="M387.056 198.029H271.291l30.614-114.226a9.023 9.023 0 00-6.373-11.036L173.816 40.146c-4.807-1.134-9.74 1.584-11.036 6.373l-18.759 69.993v-35.5c0-4.968-4.032-9.001-9.001-9.001H9.001C4.033 72.011 0 76.043 0 81.012v378.055c0 4.968 4.032 9.001 9.001 9.001h378.055c4.969 0 9.001-4.033 9.001-9.002V207.03c0-4.968-4.032-9.001-9.001-9.001zm-9.001 126.018H270.039V216.031h108.016v108.016zM18.003 216.031h108.016v108.016H18.003V216.031zm126.018 0h108.016v108.016H144.021V216.031zm33.827-156.154l104.325 27.958-27.958 104.325-104.325-27.958 27.958-104.325zm28.717 138.152h-62.544v-16.753l62.544 16.753zM18.003 90.013h108.016v108.016H18.003V90.013zm0 252.036h108.016v108.016H18.003V342.049zm126.018 0h108.016v108.016H144.021V342.049zm234.034 108.016H270.039V342.049h108.016v108.016z"/><path d="M459.066 0H333.048c-4.968 0-9.001 4.032-9.001 9.001V135.02c0 4.968 4.032 9.001 9.001 9.001h126.018c4.969 0 9.002-4.033 9.001-9.001V9.001c0-4.968-4.032-9.001-9.001-9.001zm-9.001 126.018H342.049V18.003h108.016v108.015z"/></svg>